<svg version="1.1" id="Layer_1" xmlns="http://www.w3.org/2000/svg" xmlns:xlink="http://www.w3.org/1999/xlink" x="0px" y="0px"
	 width="100%" viewBox="0 0 500 500" enable-background="new 0 0 500 500" xml:space="preserve">
<path fill="#FFFEFF" opacity="1.000000" stroke="none" 
	d="
M297.000000,501.000000 
	C198.000031,501.000000 99.500046,501.000000 1.000053,501.000000 
	C1.000035,334.333405 1.000035,167.666794 1.000018,1.000142 
	C167.666565,1.000095 334.333130,1.000095 500.999756,1.000047 
	C500.999847,167.666519 500.999847,334.333038 500.999939,500.999786 
	C433.166656,501.000000 365.333344,501.000000 297.000000,501.000000 
M164.402191,479.106262 
	C203.683502,493.867676 244.155960,498.585327 285.660156,492.517303 
	C332.579468,485.657532 374.070679,466.662231 410.197968,435.769440 
	C487.022644,370.075989 515.369141,260.963043 479.920654,166.395523 
	C436.792816,51.341675 316.808014,-13.978467 197.343658,13.126984 
	C132.045578,27.942570 81.161888,64.186584 45.098396,120.438187 
	C13.969601,168.992691 2.325541,222.401978 8.848326,279.748260 
	C13.417052,319.915131 27.336460,356.615875 50.371845,389.717438 
	C79.024323,430.890717 116.896049,460.595184 164.402191,479.106262 
z"/>
<path fill="#5E18EB" opacity="1.000000" stroke="none" 
	d="
M164.031738,478.991394 
	C116.896049,460.595184 79.024323,430.890717 50.371845,389.717438 
	C27.336460,356.615875 13.417052,319.915131 8.848326,279.748260 
	C2.325541,222.401978 13.969601,168.992691 45.098396,120.438187 
	C81.161888,64.186584 132.045578,27.942570 197.343658,13.126984 
	C316.808014,-13.978467 436.792816,51.341675 479.920654,166.395523 
	C515.369141,260.963043 487.022644,370.075989 410.197968,435.769440 
	C374.070679,466.662231 332.579468,485.657532 285.660156,492.517303 
	C244.155960,498.585327 203.683502,493.867676 164.031738,478.991394 
M138.627655,194.111557 
	C131.825912,216.131073 127.848923,238.729797 125.179848,261.558472 
	C123.089005,279.441620 121.811569,297.381256 123.974075,315.387634 
	C125.561935,328.609192 140.584854,343.621216 153.809250,345.265717 
	C157.858963,345.769318 160.130035,344.484589 160.950302,340.364166 
	C161.595779,337.121887 162.435333,333.875031 163.602005,330.786316 
	C178.050262,292.534760 196.607056,256.298492 217.556534,221.246231 
	C219.017975,218.800995 220.665359,216.466888 222.226273,214.081100 
	C222.921021,216.032318 222.606903,217.457962 222.327530,218.890396 
	C216.726456,247.607010 210.894928,276.282288 205.721466,305.075775 
	C204.635040,311.122437 204.129669,318.455078 206.559555,323.715637 
	C212.314392,336.174438 223.139328,343.364441 236.892075,345.405365 
	C240.631683,345.960358 243.194626,343.992889 244.028229,340.019562 
	C244.674179,336.940704 245.359299,333.824860 246.476288,330.896851 
	C258.966248,298.156738 275.193848,267.240936 292.659302,236.946289 
	C296.950439,229.503113 301.622925,222.279816 306.120087,214.955429 
	C305.917908,220.214005 304.589020,224.962189 303.423615,229.750153 
	C297.313965,254.850479 291.862091,279.996979 292.738617,306.135040 
	C293.173950,319.117035 298.512909,329.171570 309.026154,335.963654 
	C331.652100,350.581207 344.775513,348.462555 360.341034,329.515106 
	C376.775421,309.509979 386.248566,285.855133 394.817719,261.811462 
	C396.426300,257.298065 391.929199,251.753082 385.952576,249.750031 
	C380.360748,247.875931 379.131256,251.667831 377.612427,255.607819 
	C370.120972,275.041077 362.193146,294.287170 349.661713,311.161499 
	C347.117828,314.586945 343.998291,317.758118 340.605835,320.338928 
	C335.689117,324.079346 331.335754,322.723083 330.145081,316.713867 
	C328.831360,310.083557 327.982086,303.132599 328.433197,296.422333 
	C330.047394,272.410797 335.106262,248.964050 342.497833,226.113495 
	C345.751801,216.054047 350.168518,206.291702 354.914185,196.823975 
	C357.680939,191.304306 358.482361,190.124023 354.104095,185.733627 
	C347.616150,179.227722 339.696411,175.099976 330.896027,172.643829 
	C316.048309,168.499908 312.037964,172.436432 305.760620,181.368134 
	C286.058075,209.401688 270.529144,239.746872 255.749481,270.523499 
	C252.259109,277.791718 248.899750,285.122864 245.480103,292.425079 
	C244.953629,290.596985 244.892960,288.932495 245.203583,287.340454 
	C248.483826,270.528015 251.062805,253.528580 255.382065,236.984573 
	C258.971405,223.236343 264.147491,209.827438 269.631592,196.690201 
	C271.504822,192.202850 271.694733,189.252762 268.545563,186.097168 
	C260.026825,177.560959 249.736191,172.483688 237.744125,171.112000 
	C231.864685,170.439484 226.930084,172.376938 223.425110,177.396408 
	C221.042236,180.808929 218.438110,184.075760 216.195038,187.575729 
	C194.301224,221.737732 177.146591,258.321014 161.180664,295.508087 
	C160.666260,296.706177 160.111801,297.887024 159.015244,300.320251 
	C159.015244,297.992950 158.891434,297.144165 159.033279,296.342407 
	C162.854797,274.742065 166.152359,253.028488 170.744629,231.592468 
	C173.728271,217.665192 177.873291,203.886032 186.036316,191.735214 
	C186.887772,190.467819 186.132523,186.982925 184.904953,185.640518 
	C176.556122,176.510849 165.936295,171.759338 153.633911,171.076401 
	C149.297302,170.835663 146.071152,172.817444 144.628540,177.404037 
	C142.934784,182.789124 140.812866,188.039566 138.627655,194.111557 
z"/>
<path fill="#F0ECEE" opacity="1.000000" stroke="none" 
	d="
M138.752136,193.729980 
	C140.812866,188.039566 142.934784,182.789124 144.628540,177.404037 
	C146.071152,172.817444 149.297302,170.835663 153.633911,171.076401 
	C165.936295,171.759338 176.556122,176.510849 184.904953,185.640518 
	C186.132523,186.982925 186.887772,190.467819 186.036316,191.735214 
	C177.873291,203.886032 173.728271,217.665192 170.744629,231.592468 
	C166.152359,253.028488 162.854797,274.742065 159.033279,296.342407 
	C158.891434,297.144165 159.015244,297.992950 159.015244,300.320251 
	C160.111801,297.887024 160.666260,296.706177 161.180664,295.508087 
	C177.146591,258.321014 194.301224,221.737732 216.195038,187.575729 
	C218.438110,184.075760 221.042236,180.808929 223.425110,177.396408 
	C226.930084,172.376938 231.864685,170.439484 237.744125,171.112000 
	C249.736191,172.483688 260.026825,177.560959 268.545563,186.097168 
	C271.694733,189.252762 271.504822,192.202850 269.631592,196.690201 
	C264.147491,209.827438 258.971405,223.236343 255.382065,236.984573 
	C251.062805,253.528580 248.483826,270.528015 245.203583,287.340454 
	C244.892960,288.932495 244.953629,290.596985 245.480103,292.425079 
	C248.899750,285.122864 252.259109,277.791718 255.749481,270.523499 
	C270.529144,239.746872 286.058075,209.401688 305.760620,181.368134 
	C312.037964,172.436432 316.048309,168.499908 330.896027,172.643829 
	C339.696411,175.099976 347.616150,179.227722 354.104095,185.733627 
	C358.482361,190.124023 357.680939,191.304306 354.914185,196.823975 
	C350.168518,206.291702 345.751801,216.054047 342.497833,226.113495 
	C335.106262,248.964050 330.047394,272.410797 328.433197,296.422333 
	C327.982086,303.132599 328.831360,310.083557 330.145081,316.713867 
	C331.335754,322.723083 335.689117,324.079346 340.605835,320.338928 
	C343.998291,317.758118 347.117828,314.586945 349.661713,311.161499 
	C362.193146,294.287170 370.120972,275.041077 377.612427,255.607819 
	C379.131256,251.667831 380.360748,247.875931 385.952576,249.750031 
	C391.929199,251.753082 396.426300,257.298065 394.817719,261.811462 
	C386.248566,285.855133 376.775421,309.509979 360.341034,329.515106 
	C344.775513,348.462555 331.652100,350.581207 309.026154,335.963654 
	C298.512909,329.171570 293.173950,319.117035 292.738617,306.135040 
	C291.862091,279.996979 297.313965,254.850479 303.423615,229.750153 
	C304.589020,224.962189 305.917908,220.214005 306.120087,214.955429 
	C301.622925,222.279816 296.950439,229.503113 292.659302,236.946289 
	C275.193848,267.240936 258.966248,298.156738 246.476288,330.896851 
	C245.359299,333.824860 244.674179,336.940704 244.028229,340.019562 
	C243.194626,343.992889 240.631683,345.960358 236.892075,345.405365 
	C223.139328,343.364441 212.314392,336.174438 206.559555,323.715637 
	C204.129669,318.455078 204.635040,311.122437 205.721466,305.075775 
	C210.894928,276.282288 216.726456,247.607010 222.327530,218.890396 
	C222.606903,217.457962 222.921021,216.032318 222.226273,214.081100 
	C220.665359,216.466888 219.017975,218.800995 217.556534,221.246231 
	C196.607056,256.298492 178.050262,292.534760 163.602005,330.786316 
	C162.435333,333.875031 161.595779,337.121887 160.950302,340.364166 
	C160.130035,344.484589 157.858963,345.769318 153.809250,345.265717 
	C140.584854,343.621216 125.561935,328.609192 123.974075,315.387634 
	C121.811569,297.381256 123.089005,279.441620 125.179848,261.558472 
	C127.848923,238.729797 131.825912,216.131073 138.752136,193.729980 
z"/>
</svg>